<?xml version="1.0" encoding="UTF-8"?>
<!-- Generator: visioncortex VTracer 0.6.3 -->
<svg version="1.1" xmlns="http://www.w3.org/2000/svg" width="1280" height="1280">
<path d="M0 0 C5.42 2.97 8.2 8.29 11.3 13.43 C12.64 15.47 14.11 17.2 15.75 19 C19.3 23.01 21.14 27.27 22.31 32.5 C24.01 36.3 26.31 37.5 29.68 39.8 C31.8 41.59 32.56 42.91 33.62 45.44 C35.43 49.68 37.99 51.46 41.75 54 C43.62 55.44 43.62 55.44 45.62 58.56 C48 61.98 50.02 62.79 53.73 64.44 C57.5 66.42 59.33 69.99 61.62 73.44 C64.26 74.5 64.26 74.5 67.31 75.31 C73.14 77.13 77.87 79.22 81.93 83.96 C85.94 87.45 91.58 87.85 96.65 88.73 C103.55 89.94 109.76 91.1 115.94 94.56 C130.18 102.45 154.07 101.2 169.62 97.44 C172.4 96.18 172.4 96.18 175.06 94.62 C182.04 90.7 189.54 89.54 197.35 88.09 C198.36 87.9 199.37 87.71 200.41 87.52 C201.31 87.35 202.22 87.19 203.16 87.03 C207.01 86.11 209.14 84.95 211.88 82.06 C216.25 77.89 221.18 75.89 226.88 74.06 C231.03 72.59 232.41 70.23 234.62 66.44 C236.9 64.39 238.78 63.37 241.62 62.19 C244.95 60.25 245.75 58.56 247.43 55.19 C248.9 53.04 250.35 52.24 252.62 51 C256.67 48.74 257.76 46.59 259.5 42.4 C260.88 39.99 262.36 39.05 264.69 37.56 C269 34.64 269.76 31.91 270.93 26.96 C272.36 21.79 275.32 17.71 279.12 14 C281.49 11.57 282.53 9.8 284 6.81 C285.62 3.79 286.88 1.77 289.94 0.12 C294.33 -0.69 296.05 0.03 299.83 2.16 C301.66 3.46 303.17 4.73 304.62 6.44 C304.62 7.1 304.62 7.76 304.62 8.44 C305.7 8.68 306.77 8.92 307.88 9.17 C309.32 9.51 310.75 9.85 312.19 10.19 C313.24 10.42 313.24 10.42 314.32 10.66 C319.35 11.87 323.3 13.58 327.62 16.44 C328.06 17.28 328.49 18.13 328.94 19 C330.98 21.95 331.86 21.96 335.25 22.81 C342.01 24.54 346.84 28.47 351.57 33.5 C354.46 36.22 357.69 37.49 361.29 39.09 C363.88 40.58 365.12 41.87 366.62 44.44 C366.62 45.43 366.62 46.42 366.62 47.44 C367.49 47.69 368.36 47.93 369.25 48.19 C372.94 49.56 375.58 50.93 378.62 53.44 C379.08 54.59 379.53 55.75 380 56.94 C381.99 61.23 383.6 61.75 387.76 63.55 C390.24 64.73 391.32 66.04 392.62 68.44 C392.85 69.26 393.08 70.09 393.31 70.94 C394.85 73.87 395.48 73.94 398.44 75.12 C403.31 77.25 404.32 80.43 406.35 85.13 C407.95 88.03 409.91 88.79 412.87 90.12 C416.24 92.64 417.45 96.86 419.16 100.61 C420.51 103.21 421.37 104.44 423.69 106.12 C428.64 110.02 431.07 115.19 432.56 121.25 C433.32 124.68 433.32 124.68 436.49 126.14 C440.53 129.1 441.39 131.74 442.88 136.38 C443.36 137.78 443.84 139.18 444.33 140.59 C444.55 141.25 444.77 141.91 445 142.6 C446.57 147.61 446.57 147.61 450.06 151.31 C456.19 156.39 456.7 165.15 457.91 172.59 C458.95 178.16 460.36 180.51 464.62 184.44 C468.8 191.78 469.04 200.32 470.09 208.57 C471.15 216.45 472.82 222.31 476.69 229.25 C483.19 242.16 481.81 258.79 482.04 272.86 C482.09 276 482.15 279.13 482.21 282.27 C482.37 291.17 482.53 300.08 482.67 308.98 C483.11 339.3 483.11 339.3 484.57 369.58 C484.65 370.7 484.73 371.83 484.8 372.99 C485.34 379.97 486.63 386.26 488.55 393 C493.91 413.47 494.34 435.81 495.5 456.84 C495.99 471.27 495.99 471.27 501.62 484.25 C507.3 493.3 507.4 505.74 508.45 516.12 C509.22 523.24 509.22 523.24 512.62 529.44 C517.22 535.72 518.97 541.65 520.44 549.25 C520.76 550.8 520.76 550.8 521.09 552.39 C522.62 559.88 522.62 559.88 522.62 563.44 C523.23 563.7 523.84 563.97 524.47 564.24 C528.25 566.34 529.87 569.56 531.62 573.44 C532.69 577.3 533.61 581.13 534.44 585.05 C535.83 589.02 537.31 589.97 540.62 592.44 C542.32 595.21 542.32 595.21 543.75 598.25 C544.26 599.31 544.77 600.37 545.29 601.46 C546.33 603.77 547.25 606.06 548.12 608.44 C549.4 611.65 549.4 611.65 552.5 613.19 C556.11 615.78 557.5 618.41 559.19 622.38 C561.43 627.41 563.59 630.68 567.62 634.44 C568.93 635.98 570.2 637.54 571.44 639.12 C572.04 639.89 572.65 640.66 573.27 641.45 C574.62 643.44 574.62 643.44 574.62 645.44 C575.28 645.44 575.95 645.44 576.62 645.44 C584.94 653.1 584.94 653.1 586.38 658 C588.01 661.19 590.1 661.67 593.27 663.07 C597.26 665.38 600.15 668.81 603.31 672.11 C605.87 674.68 608.56 676.51 611.62 678.44 C614.39 680.66 617.15 682.89 619.62 685.44 C619.62 686.1 619.62 686.76 619.62 687.44 C620.33 687.71 621.03 687.97 621.75 688.25 C628.08 690.86 631.48 693.06 635.62 698.44 C637.78 700.91 639.43 701.89 642.56 702.81 C646.48 704.18 648.44 705.8 650.62 709.44 C650.62 710.43 650.62 711.42 650.62 712.44 C651.17 712.54 651.72 712.64 652.28 712.74 C660.07 714.69 663.65 719.44 668.62 725.44 C669.57 726.3 670.52 727.17 671.5 728.06 C673.59 730.4 674.13 731.61 675.06 734.5 C676.48 738.82 678.74 740.09 682.62 742.44 C687.05 748.39 686.78 754.65 686.79 761.76 C686.8 762.66 686.8 763.56 686.8 764.49 C686.81 766.4 686.81 768.3 686.81 770.21 C686.81 773.1 686.83 775.99 686.85 778.87 C686.85 780.73 686.85 782.59 686.86 784.45 C686.87 785.73 686.87 785.73 686.88 787.03 C686.85 795.51 686.21 803.7 680.62 810.44 C679.96 810.87 679.3 811.3 678.61 811.74 C675.99 813.98 675.6 815.89 674.69 819.19 C672.04 827.67 668.27 832.08 661.51 837.69 C659.72 839.35 658.67 840.79 657.44 842.88 C654.72 847 650.77 849.02 646.56 851.45 C643.17 853.42 640.32 855.46 637.5 858.19 C633.13 862.27 626.72 865.44 620.62 865.44 C620.4 866.01 620.17 866.59 619.94 867.19 C617.48 871.4 614.47 873.18 609.85 874.6 C608.46 874.91 607.08 875.21 605.69 875.5 C599.27 876.87 593.88 878.34 588.94 882.94 C583.66 887.44 576.68 888.19 570 889.07 C558.64 890.4 558.64 890.4 548.85 895.94 C540.77 901.38 528.83 901.21 519.44 902 C504.79 902.7 504.79 902.7 491.38 907.88 C486.42 910.47 481.66 911.29 476.18 912.03 C475.27 912.16 474.35 912.29 473.4 912.42 C462.94 913.78 452.47 914.16 441.94 914.5 C425.74 915.04 425.74 915.04 409.6 916.37 C408.87 916.45 408.15 916.52 407.41 916.6 C402.3 917.19 397.9 918.56 393.16 920.5 C384.34 923.77 374.3 923.91 365 924.5 C363.09 924.62 363.09 924.62 361.14 924.75 C348.64 925.54 336.14 926.07 323.62 926.44 C322.59 926.47 322.59 926.47 321.53 926.5 C289.22 927.46 256.92 927.59 224.6 927.57 C219.59 927.57 214.59 927.57 209.58 927.57 C208.85 927.57 208.13 927.57 207.38 927.57 C205.91 927.57 204.43 927.57 202.96 927.57 C189.27 927.58 175.59 927.57 161.9 927.57 C150.28 927.56 138.65 927.56 127.03 927.57 C113.38 927.57 99.73 927.58 86.08 927.57 C84.61 927.57 83.14 927.57 81.67 927.57 C80.95 927.57 80.23 927.57 79.48 927.57 C74.51 927.57 69.54 927.57 64.56 927.57 C25.2 927.59 -14.17 927.49 -53.5 925.62 C-56.1 925.5 -58.7 925.39 -61.3 925.28 C-69.65 924.9 -77.95 924.37 -86.25 923.46 C-86.98 923.39 -87.71 923.31 -88.46 923.23 C-95.01 922.46 -101.5 921.21 -107.52 918.46 C-111.07 917.19 -114.57 916.75 -118.3 916.37 C-119.47 916.25 -119.47 916.25 -120.67 916.12 C-131.57 915.03 -142.53 914.76 -153.48 914.41 C-164.14 914.06 -174.71 913.46 -185.3 912.12 C-186.19 912.02 -187.09 911.91 -188.01 911.8 C-193.82 911 -198.29 909.31 -203.38 906.44 C-211.18 902.3 -220.93 902.45 -229.61 901.74 C-252.11 899.87 -252.11 899.87 -259.45 894.46 C-264.83 890.77 -270.06 890.03 -276.44 889.25 C-294.36 886.86 -294.36 886.86 -299.31 881.5 C-303.48 877.59 -308.62 876.92 -314.07 875.91 C-319.23 874.91 -323.05 873.5 -327.38 870.44 C-328.07 868.78 -328.74 867.12 -329.38 865.44 C-331.79 864.33 -331.79 864.33 -334.62 863.88 C-341.69 862.22 -346.01 858.77 -351.32 854.06 C-353.72 852.16 -356.25 850.68 -358.88 849.12 C-363.64 846.18 -366.56 843.11 -369.76 838.55 C-371.36 836.46 -372.91 835.08 -375 833.5 C-380.44 829.09 -382.7 822.54 -384.88 816.06 C-386.54 812.05 -388.03 811.03 -391.38 808.44 C-395.37 800.88 -395.54 793.23 -395.58 784.88 C-395.58 783.98 -395.59 783.08 -395.6 782.15 C-395.6 780.25 -395.61 778.36 -395.62 776.46 C-395.62 773.58 -395.66 770.7 -395.69 767.82 C-395.69 765.96 -395.7 764.11 -395.7 762.26 C-395.72 761.41 -395.73 760.56 -395.74 759.68 C-395.72 753.9 -394.89 748.69 -392.38 743.44 C-390.09 741.21 -388.2 739.85 -385.38 738.44 C-384.94 737.2 -384.51 735.96 -384.06 734.69 C-382.61 730.59 -380.67 728.34 -377.38 725.44 C-374.85 722.97 -372.59 720.75 -370.62 717.81 C-367.42 714.43 -363.8 713.6 -359.38 712.44 C-359.31 711.7 -359.25 710.95 -359.19 710.19 C-358.09 706.46 -356.64 705.52 -353.38 703.44 C-352.03 702.98 -350.67 702.54 -349.31 702.12 C-345.76 700.91 -345.5 700.67 -343.56 697.12 C-343.28 696.52 -343 695.91 -342.71 695.29 C-339.84 691.31 -334.78 689.35 -330.38 687.44 C-329.72 687.44 -329.06 687.44 -328.38 687.44 C-328.14 686.86 -327.91 686.28 -327.67 685.69 C-326.06 682.89 -324.18 681.42 -321.62 679.44 C-320.73 678.74 -319.83 678.03 -318.9 677.31 C-316.38 675.44 -316.38 675.44 -313.19 673.44 C-310.54 671.56 -308.97 669.86 -306.94 667.38 C-304.45 664.37 -303.44 663.46 -299.69 661.94 C-295.55 660.07 -295 658.39 -293.28 654.38 C-292.09 651.83 -290.56 650.18 -288.38 648.44 C-287.72 648.44 -287.06 648.44 -286.38 648.44 C-286.05 647.45 -285.72 646.46 -285.38 645.44 C-284.72 645.44 -284.06 645.44 -283.38 645.44 C-283.12 644.72 -282.87 644 -282.62 643.25 C-281.26 640.18 -279.63 637.97 -277.5 635.38 C-276.82 634.54 -276.14 633.7 -275.45 632.84 C-273.38 630.44 -273.38 630.44 -271.24 628.41 C-269.26 626.32 -268.44 624.67 -267.44 622 C-265.21 616.68 -262.16 613.63 -257.38 610.44 C-256.32 608.07 -256.32 608.07 -255.5 605.31 C-251.32 593.16 -251.32 593.16 -246.37 590.27 C-242.78 586.97 -242.49 581.93 -241.48 577.3 C-240.09 571.57 -237.94 567.32 -233.38 563.44 C-232.72 563.44 -232.06 563.44 -231.38 563.44 C-231.27 562.58 -231.16 561.72 -231.04 560.83 C-227.92 537.53 -227.92 537.53 -221.38 528.44 C-218.74 524.6 -217.87 521.6 -217.35 516.99 C-217.19 515.75 -217.04 514.51 -216.88 513.23 C-216.59 510.64 -216.29 508.05 -216 505.47 C-214.87 496.26 -213.2 488.05 -208.32 480.07 C-206.27 476.54 -205.64 473.43 -205.21 469.34 C-205.1 468.31 -205.1 468.31 -204.99 467.27 C-204.13 458.84 -203.67 450.37 -203.17 441.91 C-201.95 421.53 -200.46 401.32 -195.06 381.55 C-193.53 374.57 -193.18 367.4 -192.84 360.27 C-192.8 359.41 -192.76 358.55 -192.72 357.67 C-192.29 348.46 -192.11 339.25 -191.96 330.03 C-191.91 326.95 -191.85 323.87 -191.79 320.79 C-191.63 312.05 -191.47 303.3 -191.33 294.56 C-191.23 289.17 -191.13 283.78 -191.03 278.39 C-190.99 276.36 -190.96 274.33 -190.93 272.3 C-190.4 238.36 -190.4 238.36 -184.38 225.44 C-183.87 224.97 -183.37 224.51 -182.86 224.04 C-181.09 222.13 -180.87 221.06 -180.53 218.52 C-180.42 217.74 -180.31 216.97 -180.2 216.18 C-180.09 215.36 -179.98 214.53 -179.88 213.69 C-179.63 211.97 -179.38 210.25 -179.12 208.54 C-179 207.68 -178.88 206.82 -178.75 205.94 C-178.21 202.32 -177.57 198.72 -176.88 195.12 C-176.66 193.97 -176.44 192.82 -176.22 191.64 C-174.99 186.98 -173.26 182.48 -169.38 179.44 C-168.72 179.44 -168.06 179.44 -167.38 179.44 C-167.27 178.54 -167.16 177.65 -167.04 176.73 C-164.32 155.96 -164.32 155.96 -157.38 150.44 C-156.72 150.11 -156.06 149.78 -155.38 149.44 C-154.3 145.96 -153.37 142.49 -152.49 138.96 C-150.72 132.38 -148.18 128.31 -142.38 124.44 C-141.35 122.07 -141.35 122.07 -140.56 119.31 C-138.39 112.96 -135.27 108.14 -130.37 103.56 C-128.12 101.16 -126.92 98.83 -125.5 95.88 C-122.98 91.04 -121.25 89.82 -116.38 87.44 C-115.1 85.15 -115.1 85.15 -114 82.5 C-111.84 77.65 -110.04 76.38 -105.22 74.49 C-102.31 72.83 -101.63 70.34 -100.37 67.34 C-98.29 63.37 -94.45 61.79 -90.38 60.44 C-89.46 58.73 -89.46 58.73 -88.75 56.69 C-86.38 51.55 -82.5 49.49 -77.38 47.44 C-76.71 47.44 -76.06 47.44 -75.38 47.44 C-75.28 46.6 -75.28 46.6 -75.19 45.75 C-73.72 41.57 -70.85 39.2 -66.96 37.18 C-66.09 36.77 -65.21 36.36 -64.31 35.94 C-60.12 33.97 -58.22 32.11 -55.38 28.44 C-51.3 25.65 -47.37 23.68 -42.56 22.5 C-39.14 21.73 -39.14 21.73 -37.5 18.56 C-33.29 12.37 -26.45 11.39 -19.44 9.94 C-18.34 9.74 -17.23 9.55 -16.1 9.34 C-13.26 8.72 -13.26 8.72 -12.18 6.48 C-11.91 5.81 -11.65 5.13 -11.38 4.44 C-4.11 -0.97 -4.11 -0.97 0 0 Z " fill="#000000" transform="translate(494.375,151.5625)"/>
<path d="M0 0 C2.58 0.57 5 0.7 7.64 0.79 C9.32 0.85 9.32 0.85 11.03 0.91 C12.27 0.95 13.51 0.99 14.78 1.03 C15.44 1.05 16.09 1.07 16.76 1.09 C21.99 1.26 27.22 1.41 32.45 1.55 C33.25 1.57 34.04 1.6 34.86 1.62 C102.93 3.49 171.19 3.47 239.26 1.68 C241.62 1.62 243.98 1.56 246.34 1.5 C249.95 1.4 253.56 1.3 257.17 1.18 C259.05 1.13 260.93 1.07 262.81 1.02 C269.21 0.79 274.99 0.03 281.2 -1.51 C285.64 -1.31 288.04 0.41 291.2 3.49 C293.8 7.86 294.59 11.09 294.6 16.15 C294.61 17.42 294.61 18.69 294.61 20 C294.6 21.97 294.6 21.97 294.58 23.99 C294.59 25.28 294.6 26.56 294.61 27.89 C294.58 39.58 294.14 52.16 285.73 61.05 C283.02 65.39 282.35 70.53 281.27 75.49 C279.65 82.31 277.11 85.55 271.2 89.49 C270.26 91.87 270.26 91.87 269.52 94.62 C267.69 100 265.25 102.94 261.09 106.72 C258.17 109.46 256.24 112.75 254.21 116.17 C251.15 120.93 247.46 123.62 242.77 126.73 C238.07 129.96 233.95 133.88 229.77 137.74 C227.27 139.45 225.51 140.05 222.64 140.87 C219.05 141.94 218.43 142.15 216.27 145.43 C213.19 149.99 209.39 151.06 204.2 152.49 C199.89 153.33 195.57 153.97 191.2 154.49 C191.2 156.8 191.2 159.11 191.2 161.49 C155.56 161.49 119.92 161.49 83.2 161.49 C83.2 159.18 83.2 156.87 83.2 154.49 C82.44 154.38 81.68 154.27 80.89 154.16 C63.46 151.48 63.46 151.48 57.07 143.33 C54.85 141.15 53.34 140.73 50.33 140.05 C44.74 138.76 42.04 135.77 38.23 131.63 C35.8 129.07 33.21 127.32 30.2 125.49 C24.99 122.22 21.57 118.81 18.2 113.68 C15.43 109.6 12.71 105.8 9.27 102.24 C5.96 98.68 5.09 95.19 3.94 90.54 C3.37 88.23 3.37 88.23 0.77 87.24 C-0.5 86.87 -0.5 86.87 -1.8 86.49 C-5.53 81.87 -6.84 77.49 -8.05 71.74 C-8.22 70.97 -8.39 70.21 -8.57 69.42 C-9.8 63.88 -9.8 63.88 -9.8 61.49 C-10.72 61.1 -10.72 61.1 -11.66 60.7 C-15.25 58.66 -16.46 55.22 -17.8 51.49 C-19.96 42.47 -20.16 33.41 -20.17 24.18 C-20.2 22.86 -20.22 21.54 -20.25 20.18 C-20.27 11.31 -19.49 6.71 -13.61 -0.01 C-9.12 -2.4 -4.77 -1.35 0 0 Z " fill="#000000" transform="translate(502.79681396484375,1118.509994506836)"/>
<path d="M0 0 C29.04 0 58.08 0 88 0 C88 2.31 88 4.62 88 7 C89.11 7.08 90.23 7.17 91.38 7.25 C97.62 8.05 103.91 9.79 108.31 14.44 C108.87 15.28 109.43 16.13 110 17 C112.59 19.87 114.41 21.76 118 23.25 C121.84 25.49 122.66 27.87 124.59 31.75 C126.15 34.24 127.52 35.22 130 36.75 C135.66 40.56 137.21 46.68 139 53 C139.17 54.1 139.34 55.2 139.51 56.34 C139.67 57.22 139.83 58.09 140 59 C141.87 60.18 141.87 60.18 144 61 C151.04 68.58 150.16 80.63 150.17 90.3 C150.17 91.26 150.17 92.22 150.18 93.2 C150.18 95.22 150.19 97.23 150.19 99.25 C150.19 102.29 150.21 105.34 150.22 108.39 C150.3 135.29 150.3 135.29 144 144 C143.34 144.43 142.68 144.85 142 145.29 C139.25 147.65 138.86 149.84 137.94 153.31 C134.67 165.39 134.67 165.39 129 169 C125.28 171.59 123.89 173.85 122 178 C114.4 185 114.4 185 110 185 C109.92 185.58 109.84 186.16 109.75 186.75 C108.75 189.76 107.43 190.94 105 193 C101.65 194.45 101.65 194.45 97.94 195.69 C96.71 196.1 95.48 196.52 94.21 196.95 C93.15 197.3 92.09 197.64 91 198 C87.85 198.73 87.85 198.73 86.25 201.38 C81.71 206.67 75.85 207.39 69.22 207.98 C68.26 208.05 67.3 208.12 66.31 208.19 C65.3 208.27 64.29 208.35 63.25 208.43 C14.41 211.99 14.41 211.99 2 202 C1.34 201.01 0.68 200.02 0 199 C-2.44 198.05 -4.81 197.24 -7.31 196.5 C-19.22 192.92 -19.22 192.92 -22.31 187.56 C-24.25 184.62 -25.75 183.45 -29 182.12 C-33.49 180.19 -34.66 177.44 -36.72 173.16 C-38.11 170.81 -39.27 169.87 -41.56 168.44 C-47.7 164.5 -48.97 158.43 -50.5 151.62 C-50.7 150.61 -50.89 149.59 -51.09 148.54 C-51.75 145.87 -51.75 145.87 -53.99 144.76 C-54.65 144.51 -55.32 144.26 -56 144 C-63.08 136.37 -62.16 124.2 -62.17 114.48 C-62.17 113.5 -62.17 112.52 -62.18 111.51 C-62.18 109.45 -62.19 107.39 -62.19 105.33 C-62.19 102.21 -62.21 99.09 -62.22 95.97 C-62.31 68.05 -62.31 68.05 -56 61 C-54.99 60.61 -54.99 60.61 -53.96 60.2 C-51.75 59.13 -51.75 59.13 -51.09 56.46 C-50.9 55.44 -50.7 54.42 -50.5 53.38 C-48.49 44.48 -46.5 39.7 -38.87 34.57 C-36.77 32.81 -36.08 31.46 -35.06 28.94 C-33.17 24.48 -30.45 23.37 -26.21 21.34 C-23.71 19.82 -22.81 18.48 -21.31 16 C-17.41 10.17 -10.51 8.63 -4 7 C-2.68 7 -1.36 7 0 7 C0 4.69 0 2.38 0 0 Z " fill="#000000" transform="translate(596,0)"/>
</svg>
